<svg width="39" height="47" viewBox="0 0 39 47" fill="none" xmlns="http://www.w3.org/2000/svg">
<path d="M24.3846 15.0714C27.1566 16.2296 29.4419 18.312 30.852 20.9647C32.2621 23.6175 32.71 26.6767 32.1194 29.6223C31.5288 32.5679 29.9363 35.218 27.6125 37.1221C25.2888 39.0262 22.3773 40.0667 19.3731 40.0667C16.3689 40.0667 13.4574 39.0262 11.1336 37.1221C8.80988 35.218 7.21733 32.5679 6.62674 29.6223C6.03616 26.6767 6.48399 23.6175 7.8941 20.9647C9.30421 18.312 11.5896 16.2296 14.3616 15.0714" stroke="white" stroke-width="2" stroke-miterlimit="10"/>
<path d="M18.3691 5.07144H14.3691V1.07144H24.3691V5.07144H20.3691" stroke="white" stroke-width="2" stroke-miterlimit="10"/>
<path d="M17.3692 7.07144V9.18845C12.7971 9.69961 8.59436 11.942 5.62397 15.455C2.65359 18.9681 1.14107 23.4851 1.39705 28.0785C1.65303 32.6719 3.65808 36.993 7.00041 40.1542C10.3427 43.3155 14.7686 45.077 19.3692 45.077C23.9697 45.077 28.3956 43.3155 31.7379 40.1542C35.0802 36.993 37.0853 32.6719 37.3413 28.0785C37.5973 23.4851 36.0847 18.9681 33.1144 15.455C30.144 11.942 25.9412 9.69961 21.3692 9.18845V7.07144" stroke="white" stroke-width="2" stroke-miterlimit="10"/>
<path d="M19.3691 30.0714C21.026 30.0714 22.3691 28.7283 22.3691 27.0714C22.3691 25.4146 21.026 24.0714 19.3691 24.0714C17.7123 24.0714 16.3691 25.4146 16.3691 27.0714C16.3691 28.7283 17.7123 30.0714 19.3691 30.0714Z" stroke="white" stroke-width="2" stroke-miterlimit="10"/>
<path d="M19.3691 24.0714V13.0714" stroke="white" stroke-width="2" stroke-miterlimit="10"/>
<path d="M19.3691 30.0714V33.0714" stroke="white" stroke-width="2" stroke-miterlimit="10"/>
<path d="M35.3691 11.0714L32.3691 8.07144" stroke="white" stroke-width="2" stroke-miterlimit="10"/>
<path d="M30.3691 13.0714L33.3691 10.0714" stroke="white" stroke-width="2" stroke-miterlimit="10"/>
<path d="M3.36914 11.0714L6.36914 8.07144" stroke="white" stroke-width="2" stroke-miterlimit="10"/>
<path d="M8.36914 13.0714L5.36914 10.0714" stroke="white" stroke-width="2" stroke-miterlimit="10"/>
</svg>
