<svg width="48" height="49" viewBox="0 0 48 49" fill="none" xmlns="http://www.w3.org/2000/svg">
<path d="M37.4385 41.3317V45.3317C37.4385 45.8621 37.2278 46.3708 36.8527 46.7459C36.4776 47.121 35.9689 47.3317 35.4385 47.3317H3.43848C2.90804 47.3317 2.39933 47.121 2.02426 46.7459C1.64919 46.3708 1.43848 45.8621 1.43848 45.3317L1.43848 8.33167C1.43848 7.80123 1.64919 7.29252 2.02426 6.91745C2.39933 6.54238 2.90804 6.33167 3.43848 6.33167H7.43848" stroke="white" stroke-width="2" stroke-miterlimit="10"/>
<path d="M31.4385 6.33167H35.4385C35.9689 6.33167 36.4776 6.54238 36.8527 6.91745C37.2278 7.29252 37.4385 7.80123 37.4385 8.33167V13.3317" stroke="white" stroke-width="2" stroke-miterlimit="10"/>
<path d="M33.4385 41.3317V43.3317H5.43848V10.3317H7.43848" stroke="white" stroke-width="2" stroke-miterlimit="10"/>
<path d="M31.4385 10.3317H33.4385V13.3317" stroke="white" stroke-width="2" stroke-miterlimit="10"/>
<path d="M26.4385 5.33167H23.4385C23.4385 4.2708 23.0171 3.25338 22.2669 2.50323C21.5168 1.75309 20.4993 1.33167 19.4385 1.33167C18.3776 1.33167 17.3602 1.75309 16.61 2.50323C15.8599 3.25338 15.4385 4.2708 15.4385 5.33167H12.4385C11.6428 5.33167 10.8798 5.64773 10.3172 6.21034C9.75455 6.77295 9.43848 7.53602 9.43848 8.33167V11.3317H29.4385V8.33167C29.4385 7.53602 29.1224 6.77295 28.5598 6.21034C27.9972 5.64773 27.2341 5.33167 26.4385 5.33167Z" stroke="white" stroke-width="2" stroke-miterlimit="10"/>
<path d="M19.4385 4.33167V6.33167" stroke="white" stroke-width="2" stroke-miterlimit="10"/>
<path d="M34.4385 39.3317C41.0659 39.3317 46.4385 33.9591 46.4385 27.3317C46.4385 20.7042 41.0659 15.3317 34.4385 15.3317C27.8111 15.3317 22.4385 20.7042 22.4385 27.3317C22.4385 33.9591 27.8111 39.3317 34.4385 39.3317Z" stroke="white" stroke-width="2" stroke-miterlimit="10"/>
<path d="M34.4385 18.3317V27.3317L38.4385 32.3317" stroke="white" stroke-width="2" stroke-miterlimit="10"/>
<path d="M10.4385 20.3317L12.4385 22.3317L16.4385 17.3317" stroke="white" stroke-width="2" stroke-miterlimit="10"/>
<path d="M10.4385 28.3317L12.4385 30.3317L16.4385 25.3317" stroke="white" stroke-width="2" stroke-miterlimit="10"/>
<path d="M10.4385 36.3317L12.4385 38.3317L16.4385 33.3317" stroke="white" stroke-width="2" stroke-miterlimit="10"/>
</svg>
